<?xml version="1.0" encoding="utf-8"?><!-- Uploaded to: SVG Repo, www.svgrepo.com, Generator: SVG Repo Mixer Tools -->
<svg fill="#000000" width="800px" height="800px" viewBox="0 0 24 24" id="curve-arrow-right-9" data-name="Flat Color" xmlns="http://www.w3.org/2000/svg" class="icon flat-color"><path id="secondary" d="M21.71,8.29l-3-3a1,1,0,0,0-1.42,1.42L18.59,8H16.71a11.78,11.78,0,0,0-10.6,6.55,1,1,0,0,0,.44,1.34A.93.93,0,0,0,7,16a1,1,0,0,0,.89-.55A9.81,9.81,0,0,1,16.71,10h1.88l-1.3,1.29a1,1,0,0,0,0,1.42,1,1,0,0,0,1.42,0l3-3A1,1,0,0,0,21.71,8.29Z" style="fill: rgb(44, 169, 188);"></path><path id="primary" d="M20,21H4a2,2,0,0,1-2-2V5A2,2,0,0,1,4,3h8a1,1,0,0,1,0,2H4V19H20V16a1,1,0,0,1,2,0v3A2,2,0,0,1,20,21Z" style="fill: rgb(0, 0, 0);"></path></svg>